<svg width="24" height="24" viewBox="0 0 24 24" xmlns="http://www.w3.org/2000/svg">
<path fill-rule="evenodd" clip-rule="evenodd" d="M19 6.00787C19 5.45559 18.5523 5 18 5H6C5.44772 5 5 5.45559 5 6.00787V6.00787C5 6.56016 5.44772 7.01575 6 7.01575H18C18.5523 7.01575 19 6.56016 19 6.00787V6.00787ZM19 10C19 9.44772 18.5523 9 18 9H10C9.44772 9 9 9.44772 9 10V10C9 10.5523 9.44772 11 10 11H18C18.5523 11 19 10.5523 19 10V10ZM5 14.0079C5 13.4556 5.44772 13 6 13H18C18.5523 13 19 13.4556 19 14.0079V14.0079C19 14.5602 18.5523 15.0157 18 15.0157H6C5.44772 15.0157 5 14.5602 5 14.0079V14.0079ZM19 18C19 17.4477 18.5523 17 18 17H10C9.44772 17 9 17.4477 9 18V18C9 18.5523 9.44772 19 10 19H18C18.5523 19 19 18.5523 19 18V18Z" fill="current-color"/>
</svg>
