<svg width="24" height="24" viewBox="0 0 24 24" xmlns="http://www.w3.org/2000/svg">
<path fill-rule="evenodd" clip-rule="evenodd" d="M19 6.00787C19 5.45559 18.5523 5 18 5H6C5.44772 5 5 5.45559 5 6.00787C5 6.56016 5.44772 7.01575 6 7.01575H18C18.5523 7.01575 19 6.56016 19 6.00787ZM15 10C15 9.44772 14.5523 9 14 9H6C5.44772 9 5 9.44772 5 10C5 10.5523 5.44772 11 6 11H14C14.5523 11 15 10.5523 15 10ZM5 14.0079C5 13.4556 5.44772 13 6 13H18C18.5523 13 19 13.4556 19 14.0079C19 14.5602 18.5523 15.0157 18 15.0157H6C5.44772 15.0157 5 14.5602 5 14.0079ZM15 18C15 17.4477 14.5523 17 14 17H6C5.44772 17 5 17.4477 5 18C5 18.5523 5.44772 19 6 19H14C14.5523 19 15 18.5523 15 18Z" fill="current-color"/>
</svg>
