<svg width="24" height="24" viewBox="0 0 24 24" xmlns="http://www.w3.org/2000/svg">
<path fill-rule="evenodd" clip-rule="evenodd" d="M19 6.00787C19 5.45559 18.5523 5 18 5H6C5.44772 5 5 5.45559 5 6.00787C5 6.56016 5.44772 7.01575 6 7.01575H18C18.5523 7.01575 19 6.56016 19 6.00787ZM17 10C17 9.44772 16.5523 9 16 9H8C7.44772 9 7 9.44772 7 10C7 10.5523 7.44772 11 8 11H16C16.5523 11 17 10.5523 17 10ZM5 14.0079C5 13.4556 5.44772 13 6 13H18C18.5523 13 19 13.4556 19 14.0079C19 14.5602 18.5523 15.0157 18 15.0157H6C5.44772 15.0157 5 14.5602 5 14.0079ZM17 18C17 17.4477 16.5523 17 16 17H8C7.44772 17 7 17.4477 7 18C7 18.5523 7.44772 19 8 19H16C16.5523 19 17 18.5523 17 18Z" fill="current-color"/>
</svg>
