<svg width="24" height="24" viewBox="0 0 24 24" xmlns="http://www.w3.org/2000/svg">
<path d="M9.39844 12.8125V17.752H12.1143C13.2158 17.752 14.042 17.5498 14.5928 17.1455C15.1436 16.7354 15.4189 16.0996 15.4189 15.2383C15.4189 14.3418 15.1201 13.7148 14.5225 13.3574C13.9307 12.9941 13.0049 12.8125 11.7451 12.8125H9.39844ZM9.39844 11.5908H12.1846C13.0928 11.5908 13.7783 11.4326 14.2412 11.1162C14.7041 10.7998 14.9355 10.2373 14.9355 9.42871C14.9355 8.61426 14.6572 8.05469 14.1006 7.75C13.5498 7.43945 12.6914 7.28418 11.5254 7.28418H9.39844V11.5908ZM7.87793 6.00098H11.6045C13.2744 6.00098 14.5107 6.25586 15.3135 6.76562C16.1221 7.27539 16.5264 8.08691 16.5264 9.2002C16.5264 9.36426 16.5146 9.52832 16.4912 9.69238C16.4736 9.85059 16.4209 10.0557 16.333 10.3076C16.251 10.5596 16.1367 10.791 15.9902 11.002C15.8438 11.207 15.627 11.415 15.3398 11.626C15.0586 11.8311 14.7275 11.9951 14.3467 12.1182C15.2197 12.2822 15.8818 12.6514 16.333 13.2256C16.7842 13.7998 17.0098 14.4912 17.0098 15.2998C17.0098 16.4775 16.623 17.3887 15.8496 18.0332C15.082 18.6777 13.9365 19 12.4131 19H7.87793V6.00098Z" fill="current-color"/>
<path d="M9.39844 12.8125V12.3125H8.89844V12.8125H9.39844ZM9.39844 17.752H8.89844V18.252H9.39844V17.752ZM14.5928 17.1455L14.8886 17.5486L14.8914 17.5465L14.5928 17.1455ZM14.5225 13.3574L14.2609 13.7836L14.2658 13.7865L14.5225 13.3574ZM9.39844 11.5908H8.89844V12.0908H9.39844V11.5908ZM14.1006 7.75L13.855 8.18557L13.8605 8.18859L14.1006 7.75ZM9.39844 7.28418V6.78418H8.89844V7.28418H9.39844ZM7.87793 6.00098V5.50098H7.37793V6.00098H7.87793ZM15.3135 6.76562L15.0454 7.18771L15.0468 7.18859L15.3135 6.76562ZM16.4912 9.69238L15.9962 9.62167L15.9951 9.6294L15.9943 9.63717L16.4912 9.69238ZM16.333 10.3076L15.8608 10.1429L15.8576 10.1528L16.333 10.3076ZM15.9902 11.002L16.3971 11.2926L16.4009 11.2872L15.9902 11.002ZM15.3398 11.626L15.6344 12.03L15.6359 12.0289L15.3398 11.626ZM14.3467 12.1182L14.193 11.6424L14.2543 12.6096L14.3467 12.1182ZM15.8496 18.0332L15.5295 17.6491L15.5281 17.6503L15.8496 18.0332ZM7.87793 19H7.37793V19.5H7.87793V19ZM8.89844 12.8125V17.752H9.89844V12.8125H8.89844ZM9.39844 18.252H12.1143V17.252H9.39844V18.252ZM12.1143 18.252C13.2622 18.252 14.2138 18.0439 14.8886 17.5486L14.2969 16.7424C13.8701 17.0557 13.1694 17.252 12.1143 17.252V18.252ZM14.8914 17.5465C15.6008 17.0182 15.9189 16.213 15.9189 15.2383H14.9189C14.9189 15.9862 14.6863 16.4525 14.2941 16.7445L14.8914 17.5465ZM15.9189 15.2383C15.9189 14.2238 15.5715 13.4022 14.7791 12.9283L14.2658 13.7865C14.6687 14.0275 14.9189 14.4598 14.9189 15.2383H15.9189ZM14.784 12.9313C14.0724 12.4945 13.0327 12.3125 11.7451 12.3125V13.3125C12.9771 13.3125 13.7889 13.4938 14.2609 13.7835L14.784 12.9313ZM11.7451 12.3125H9.39844V13.3125H11.7451V12.3125ZM9.39844 12.0908H12.1846V11.0908H9.39844V12.0908ZM12.1846 12.0908C13.1366 12.0908 13.9403 11.9275 14.5234 11.529L13.9591 10.7034C13.6163 10.9377 13.049 11.0908 12.1846 11.0908V12.0908ZM14.5234 11.529C15.1764 11.0826 15.4355 10.3243 15.4355 9.42871H14.4355C14.4355 10.1504 14.2318 10.517 13.9591 10.7034L14.5234 11.529ZM15.4355 9.42871C15.4355 8.49193 15.1044 7.72943 14.3407 7.31141L13.8605 8.18859C14.2101 8.37995 14.4355 8.73658 14.4355 9.42871H15.4355ZM14.3462 7.31446C13.6807 6.93926 12.716 6.78418 11.5254 6.78418V7.78418C12.6668 7.78418 13.4189 7.93965 13.855 8.18554L14.3462 7.31446ZM11.5254 6.78418H9.39844V7.78418H11.5254V6.78418ZM8.89844 7.28418V11.5908H9.89844V7.28418H8.89844ZM7.87793 6.50098H11.6045V5.50098H7.87793V6.50098ZM11.6045 6.50098C13.2422 6.50098 14.3631 6.75437 15.0454 7.18771L15.5815 6.34354C14.6584 5.75735 13.3066 5.50098 11.6045 5.50098V6.50098ZM15.0468 7.18859C15.6842 7.5904 16.0264 8.22547 16.0264 9.2002H17.0264C17.0264 7.94835 16.5599 6.96038 15.5801 6.34266L15.0468 7.18859ZM16.0264 9.2002C16.0264 9.34036 16.0164 9.48079 15.9962 9.62167L16.9862 9.76309C17.0129 9.57585 17.0264 9.38816 17.0264 9.2002H16.0264ZM15.9943 9.63717C15.9827 9.74144 15.9435 9.90606 15.8609 10.1429L16.8051 10.4723C16.8983 10.2053 16.9646 9.95973 16.9882 9.7476L15.9943 9.63717ZM15.8576 10.1528C15.7902 10.3599 15.6973 10.5472 15.5795 10.7168L16.4009 11.2872C16.5761 11.0349 16.7118 10.7593 16.8084 10.4624L15.8576 10.1528ZM15.5834 10.7113C15.4775 10.8596 15.3044 11.0316 15.0438 11.223L15.6359 12.0289C15.9495 11.7985 16.21 11.5545 16.3971 11.2926L15.5834 10.7113ZM15.0453 11.222C14.8127 11.3915 14.5308 11.5332 14.193 11.6424L14.5004 12.5939C14.9243 12.457 15.3045 12.2706 15.6344 12.03L15.0453 11.222ZM14.2543 12.6096C15.0352 12.7563 15.5789 13.0751 15.9398 13.5345L16.7262 12.9167C16.1848 12.2277 15.4042 11.8081 14.439 11.6268L14.2543 12.6096ZM15.9398 13.5345C16.3143 14.0111 16.5098 14.5905 16.5098 15.2998H17.5098C17.5098 14.3919 17.254 13.5885 16.7262 12.9167L15.9398 13.5345ZM16.5098 15.2998C16.5098 16.3572 16.1691 17.1161 15.5295 17.6491L16.1697 18.4173C17.077 17.6612 17.5098 16.5979 17.5098 15.2998H16.5098ZM15.5281 17.6503C14.8871 18.1885 13.8776 18.5 12.4131 18.5V19.5C13.9955 19.5 15.277 19.1669 16.1711 18.4161L15.5281 17.6503ZM12.4131 18.5H7.87793V19.5H12.4131V18.5ZM8.37793 19V6.00098H7.37793V19H8.37793Z" fill="current-color"/>
</svg>
