<svg width="24" height="24" viewBox="0 0 24 24" xmlns="http://www.w3.org/2000/svg">
<path fill-rule="evenodd" clip-rule="evenodd" d="M5.8 7.6C6.79411 7.6 7.6 6.79411 7.6 5.8C7.6 4.80589 6.79411 4 5.8 4C4.80589 4 4 4.80589 4 5.8C4 6.79411 4.80589 7.6 5.8 7.6ZM10 5C9.44772 5 9 5.44772 9 6C9 6.55228 9.44772 7 10 7H18C18.5523 7 19 6.55228 19 6C19 5.44772 18.5523 5 18 5H10ZM5.8 19.6C6.79411 19.6 7.6 18.7941 7.6 17.8C7.6 16.8059 6.79411 16 5.8 16C4.80589 16 4 16.8059 4 17.8C4 18.7941 4.80589 19.6 5.8 19.6ZM10 17C9.44772 17 9 17.4477 9 18C9 18.5523 9.44772 19 10 19H18C18.5523 19 19 18.5523 19 18C19 17.4477 18.5523 17 18 17H10ZM7.6 11.8C7.6 12.7941 6.79411 13.6 5.8 13.6C4.80589 13.6 4 12.7941 4 11.8C4 10.8059 4.80589 10 5.8 10C6.79411 10 7.6 10.8059 7.6 11.8ZM9 12C9 11.4477 9.44772 11 10 11H18C18.5523 11 19 11.4477 19 12C19 12.5523 18.5523 13 18 13H10C9.44772 13 9 12.5523 9 12Z" fill="current-color"/>
</svg>
