<svg width="24" height="24" viewBox="0 0 24 24" xmlns="http://www.w3.org/2000/svg">
<path d="M18.0075 14.535C17.085 14.535 16.1925 14.385 15.36 14.115C15.0975 14.025 14.805 14.0925 14.6025 14.295L13.425 15.7725C11.3025 14.76 9.315 12.8475 8.2575 10.65L9.72 9.405C9.9225 9.195 9.9825 8.9025 9.9 8.64C9.6225 7.8075 9.48 6.915 9.48 5.9925C9.48 5.5875 9.1425 5.25 8.7375 5.25H6.1425C5.7375 5.25 5.25 5.43 5.25 5.9925C5.25 12.96 11.0475 18.75 18.0075 18.75C18.54 18.75 18.75 18.2775 18.75 17.865V15.2775C18.75 14.8725 18.4125 14.535 18.0075 14.535Z" fill="current-color"/>
</svg>
