<svg width="24" height="24" viewBox="0 0 24 24" xmlns="http://www.w3.org/2000/svg">
<path fill-rule="evenodd" clip-rule="evenodd" d="M11.3848 5H12.5733V9.2H11.3848V5ZM11.3848 9.2H7.5C6.67157 9.2 6 9.87157 6 10.7V17.5C6 18.3284 6.67157 19 7.5 19H16.5C17.3284 19 18 18.3284 18 17.5V10.7C18 9.87157 17.3284 9.2 16.5 9.2H12.5733V14.613L15.726 11.1154L16.4361 11.8195L13.1046 15.5155C12.5499 16.1308 11.6234 16.1568 11.0351 15.5735L7.48457 12.0529L8.1541 11.3101L11.3848 14.5136V9.2ZM12.0723 14.97H12.009C12.0301 14.9714 12.0512 14.9714 12.0723 14.97Z" fill="current-color"/>
</svg>
