<svg width="24" height="24" viewBox="0 0 24 24" xmlns="http://www.w3.org/2000/svg">
<path fill-rule="evenodd" clip-rule="evenodd" d="M11.0843 5C10.9586 5 10.8462 5.07844 10.8028 5.19648L6.81243 16.0496C6.74043 16.2454 6.88536 16.4531 7.094 16.4531H8.66269C8.78991 16.4531 8.9033 16.3729 8.94561 16.2529L9.94501 13.419C9.98733 13.299 10.1007 13.2188 10.2279 13.2188H13.8106C13.9381 13.2188 14.0516 13.2993 14.0938 13.4196L15.0859 16.2523C15.128 16.3726 15.2416 16.4531 15.369 16.4531H16.9004C17.1084 16.4531 17.2533 16.2466 17.1825 16.051L13.2513 5.19783C13.2083 5.07909 13.0956 5 12.9693 5H11.0843ZM13.3626 11.2502C13.4228 11.4434 13.2789 11.6406 13.0765 11.6406H10.958C10.7547 11.6406 10.6103 11.4427 10.6724 11.2491L11.7251 7.96413C11.8166 7.67842 12.2519 7.68083 12.3407 7.9674C12.5611 8.67819 12.9017 9.77247 13.3626 11.2502ZM5.5 17.5468C5.22386 17.5468 5 17.7706 5 18.0468V19.0625C5 19.3386 5.22386 19.5625 5.5 19.5625H18.5C18.7761 19.5625 19 19.3386 19 19.0625V18.0468C19 17.7706 18.7761 17.5468 18.5 17.5468H5.5Z" fill="current-color"/>
</svg>
