<svg width="24" height="24" viewBox="0 0 24 24" xmlns="http://www.w3.org/2000/svg">
<path fill-rule="evenodd" clip-rule="evenodd" d="M16.7003 7.00024C16.866 7.00011 17.0002 6.86568 17.0001 6.7L16.999 5.3C16.9988 5.13431 16.8644 5.00011 16.6987 5.00024L7.29988 5.00783C7.1342 5.00796 6.99999 5.14239 7.00013 5.30807L7.00126 6.70807C7.00139 6.87376 7.13581 7.00796 7.3015 7.00783L10.9811 7.00486C11.1623 7.00471 11.3022 7.16399 11.2788 7.34366L10.0527 16.7438C10.0332 16.8932 9.90605 17.0049 9.75545 17.005L6.3 17.0078C6.13431 17.008 6.00011 17.1424 6.00024 17.3081L6.00137 18.7081C6.00151 18.8738 6.13593 19.008 6.30161 19.0078L16.4357 18.9996C16.6014 18.9995 16.7356 18.8651 16.7355 18.6994L16.7344 17.2994C16.7342 17.1337 16.5998 16.9995 16.4341 16.9996L12.2634 17.003C12.0822 17.0032 11.9422 16.8439 11.9657 16.6642L13.1918 7.26403C13.2113 7.1147 13.3384 7.00296 13.489 7.00283L16.7003 7.00024Z" fill="current-color"/>
</svg>
