<svg width="24" height="24" viewBox="0 0 24 24" xmlns="http://www.w3.org/2000/svg">
<path fill-rule="evenodd" clip-rule="evenodd" d="M11.9656 6.7108C11.2347 7.44182 11.1257 8.55925 11.6384 9.40559L14.6403 6.40306C15.0308 6.0125 15.6639 6.0125 16.0544 6.40306L17.3357 7.68459C17.7261 8.07515 17.7261 8.70838 17.3357 9.09894L14.3102 12.125C15.1694 12.739 16.3711 12.6603 17.1425 11.8888L19.2085 9.82239C20.0675 8.96315 20.0675 7.57004 19.2085 6.7108L17.1425 4.64443C16.2834 3.78519 14.8906 3.78519 14.0316 4.64443L11.9656 6.7108ZM6.71026 11.9672C7.44113 11.2361 8.55834 11.1271 9.40452 11.6399L6.37114 14.6739C5.98066 15.0644 5.98066 15.6977 6.37114 16.0882L7.65241 17.3698C8.0429 17.7603 8.676 17.7603 9.06649 17.3698L12.1234 14.3122C12.7373 15.1716 12.6586 16.3736 11.8872 17.1451L9.82122 19.2115C8.96215 20.0707 7.56933 20.0707 6.71026 19.2115L4.6443 17.1451C3.78523 16.2859 3.78523 14.8928 4.6443 14.0335L6.71026 11.9672ZM9.84963 12.8578C9.58336 13.1241 9.58336 13.5559 9.84963 13.8222C10.1159 14.0885 10.5476 14.0885 10.8139 13.8222L13.8288 10.8067C14.0951 10.5403 14.0951 10.1086 13.8288 9.84223C13.5626 9.57592 13.1308 9.57592 12.8646 9.84223L9.84963 12.8578Z" fill="current-color"/>
</svg>
