<svg width="24" height="24" viewBox="0 0 24 24" xmlns="http://www.w3.org/2000/svg">
<path d="M18.9961 12.1094C18.9961 12.7949 18.8906 13.4336 18.6797 14.0254C18.4746 14.6172 18.1992 15.1064 17.8535 15.4932C17.5137 15.8799 17.127 16.1816 16.6934 16.3984C16.2598 16.6152 15.8174 16.7236 15.3662 16.7236C14.8916 16.7236 14.4961 16.5918 14.1797 16.3281C13.8633 16.0645 13.6729 15.6953 13.6084 15.2207C13.3447 15.5957 13.0137 15.9268 12.6152 16.2139C12.2168 16.501 11.7627 16.6445 11.2529 16.6445C10.4912 16.6445 9.88477 16.3721 9.43359 15.8271C8.98242 15.2764 8.75684 14.5293 8.75684 13.5859C8.75684 12.373 9.08203 11.3623 9.73242 10.5537C10.3887 9.74512 11.2881 9.34082 12.4307 9.34082C13.2686 9.34082 14.1592 9.50195 15.1025 9.82422C15.0615 10.1172 14.9971 10.542 14.9092 11.0986C14.8271 11.6494 14.7627 12.083 14.7158 12.3994C14.6748 12.7158 14.6338 13.0674 14.5928 13.4541C14.5518 13.8408 14.5312 14.1572 14.5312 14.4033C14.5312 15.2354 14.8564 15.6514 15.5068 15.6514C16.0986 15.6514 16.6348 15.2998 17.1152 14.5967C17.6016 13.8877 17.8447 13.0381 17.8447 12.0479C17.8447 10.4951 17.3291 9.26172 16.2979 8.34766C15.2725 7.43359 13.9424 6.97656 12.3076 6.97656C11.1299 6.97656 10.0723 7.24902 9.13477 7.79395C8.20312 8.33887 7.47656 9.0918 6.95508 10.0527C6.43945 11.0137 6.18164 12.0947 6.18164 13.2959C6.18164 15.0889 6.69141 16.4951 7.71094 17.5146C8.73633 18.5342 10.1045 19.0439 11.8154 19.0439C13.2744 19.0439 14.5811 18.7129 15.7354 18.0508L16.043 19.0264C14.9297 19.7764 13.5176 20.1514 11.8066 20.1514C9.75586 20.1514 8.10938 19.5391 6.86719 18.3145C5.625 17.0898 5.00391 15.4287 5.00391 13.3311C5.00391 12.2881 5.18555 11.3066 5.54883 10.3867C5.91797 9.4668 6.42188 8.67871 7.06055 8.02246C7.70508 7.36035 8.4873 6.83887 9.40723 6.45801C10.3271 6.07715 11.3203 5.88672 12.3867 5.88672C13.6406 5.88672 14.7656 6.13867 15.7617 6.64258C16.7578 7.14648 17.5459 7.87305 18.126 8.82227C18.7061 9.77148 18.9961 10.8672 18.9961 12.1094ZM10.0049 13.6475C10.0049 14.2275 10.1221 14.6846 10.3564 15.0186C10.5967 15.3525 10.9512 15.5195 11.4199 15.5195C12.041 15.5195 12.5127 15.2646 12.835 14.7549C13.1572 14.2393 13.377 13.5156 13.4941 12.584C13.5469 12.168 13.623 11.5 13.7227 10.5801C13.3887 10.4629 12.9609 10.4043 12.4395 10.4043C11.9004 10.4043 11.4434 10.5537 11.0684 10.8525C10.6992 11.1514 10.4297 11.541 10.2598 12.0215C10.0898 12.4961 10.0049 13.0381 10.0049 13.6475Z" fill="current-color"/>
<path d="M18.6797 14.0254L18.5855 13.9918L18.5852 13.9926L18.6797 14.0254ZM17.8535 15.4932L17.779 15.4265L17.7784 15.4272L17.8535 15.4932ZM13.6084 15.2207L13.7075 15.2072L13.6732 14.9547L13.5266 15.1632L13.6084 15.2207ZM9.43359 15.8271L9.35623 15.8905L9.35657 15.8909L9.43359 15.8271ZM9.73242 10.5537L9.65478 10.4907L9.6545 10.491L9.73242 10.5537ZM15.1025 9.82422L15.2016 9.83808L15.213 9.75629L15.1349 9.72959L15.1025 9.82422ZM14.9092 11.0986L14.8104 11.083L14.8103 11.0839L14.9092 11.0986ZM14.7158 12.3994L14.6169 12.3848L14.6167 12.3866L14.7158 12.3994ZM17.1152 14.5967L17.0328 14.5401L17.0327 14.5403L17.1152 14.5967ZM16.2979 8.34766L16.2313 8.4223L16.2315 8.42249L16.2979 8.34766ZM9.13477 7.79395L9.08451 7.70749L9.08428 7.70763L9.13477 7.79395ZM6.95508 10.0527L6.86719 10.005L6.86696 10.0055L6.95508 10.0527ZM7.71094 17.5146L7.64023 17.5854L7.64043 17.5856L7.71094 17.5146ZM15.7354 18.0508L15.8307 18.0207L15.7934 17.9022L15.6856 17.964L15.7354 18.0508ZM16.043 19.0264L16.0988 19.1093L16.1608 19.0676L16.1383 18.9963L16.043 19.0264ZM6.86719 18.3145L6.79698 18.3857L6.86719 18.3145ZM5.54883 10.3867L5.45602 10.3495L5.45582 10.35L5.54883 10.3867ZM7.06055 8.02246L6.98889 7.95271L6.98888 7.95272L7.06055 8.02246ZM10.3564 15.0186L10.2746 15.076L10.2753 15.0769L10.3564 15.0186ZM12.835 14.7549L12.9195 14.8083L12.9198 14.8079L12.835 14.7549ZM13.4941 12.584L13.3949 12.5714L13.3949 12.5715L13.4941 12.584ZM13.7227 10.5801L13.8221 10.5908L13.8306 10.512L13.7558 10.4857L13.7227 10.5801ZM11.0684 10.8525L11.006 10.7743L11.0054 10.7748L11.0684 10.8525ZM10.2598 12.0215L10.3539 12.0552L10.354 12.0548L10.2598 12.0215ZM18.8961 12.1094C18.8961 12.7845 18.7923 13.4117 18.5855 13.9918L18.7739 14.059C18.989 13.4555 19.0961 12.8053 19.0961 12.1094H18.8961ZM18.5852 13.9926C18.3836 14.5745 18.1142 15.0515 17.779 15.4265L17.9281 15.5598C18.2842 15.1614 18.5656 14.6599 18.7742 14.0581L18.5852 13.9926ZM17.7784 15.4272C17.4465 15.8048 17.07 16.0983 16.6486 16.309L16.7381 16.4879C17.1839 16.265 17.5808 15.955 17.9286 15.5592L17.7784 15.4272ZM16.6486 16.309C16.2279 16.5194 15.8007 16.6236 15.3662 16.6236V16.8236C15.834 16.8236 16.2917 16.7111 16.7381 16.4879L16.6486 16.309ZM15.3662 16.6236C14.9112 16.6236 14.5394 16.4978 14.2437 16.2513L14.1157 16.4049C14.4527 16.6858 14.872 16.8236 15.3662 16.8236V16.6236ZM14.2437 16.2513C13.9496 16.0062 13.7692 15.6614 13.7075 15.2072L13.5093 15.2342C13.5765 15.7292 13.777 16.1227 14.1157 16.4049L14.2437 16.2513ZM13.5266 15.1632C13.2698 15.5284 12.9468 15.8517 12.5568 16.1327L12.6737 16.295C13.0805 16.0018 13.4197 15.663 13.6902 15.2782L13.5266 15.1632ZM12.5568 16.1327C12.176 16.4071 11.7426 16.5445 11.2529 16.5445V16.7445C11.7828 16.7445 12.2576 16.5949 12.6737 16.295L12.5568 16.1327ZM11.2529 16.5445C10.5184 16.5445 9.94119 16.2834 9.51062 15.7634L9.35657 15.8909C9.82834 16.4607 10.464 16.7445 11.2529 16.7445V16.5445ZM9.51095 15.7638C9.07858 15.236 8.85684 14.5137 8.85684 13.5859H8.65684C8.65684 14.5448 8.88626 15.3168 9.35623 15.8905L9.51095 15.7638ZM8.85684 13.5859C8.85684 12.3918 9.17658 11.4043 9.81034 10.6164L9.6545 10.491C8.98749 11.3203 8.65684 12.3543 8.65684 13.5859H8.85684ZM9.81007 10.6167C10.4453 9.834 11.3149 9.44082 12.4307 9.44082V9.24082C11.2613 9.24082 10.332 9.65623 9.65478 10.4907L9.81007 10.6167ZM12.4307 9.44082C13.2557 9.44082 14.1353 9.59948 15.0702 9.91885L15.1349 9.72959C14.183 9.40442 13.2814 9.24082 12.4307 9.24082V9.44082ZM15.0035 9.81035C14.9626 10.1024 14.8983 10.5266 14.8104 11.083L15.008 11.1142C15.0959 10.5574 15.1604 10.1319 15.2016 9.83808L15.0035 9.81035ZM14.8103 11.0839C14.7282 11.6347 14.6638 12.0683 14.6169 12.3848L14.8147 12.4141C14.8616 12.0977 14.9261 11.6641 15.0081 11.1134L14.8103 11.0839ZM14.6167 12.3866C14.5755 12.7039 14.5344 13.0562 14.4933 13.4436L14.6922 13.4646C14.7332 13.0785 14.7741 12.7278 14.815 12.4123L14.6167 12.3866ZM14.4933 13.4436C14.4521 13.832 14.4312 14.1523 14.4312 14.4033H14.6313C14.6313 14.1622 14.6514 13.8496 14.6922 13.4646L14.4933 13.4436ZM14.4312 14.4033C14.4312 14.8296 14.5141 15.1678 14.6964 15.4009C14.8823 15.6388 15.1588 15.7514 15.5068 15.7514V15.5514C15.2045 15.5514 14.9932 15.4559 14.8539 15.2778C14.711 15.0949 14.6313 14.809 14.6313 14.4033H14.4312ZM15.5068 15.7514C16.1446 15.7514 16.7075 15.3707 17.1978 14.6531L17.0327 14.5403C16.5621 15.2289 16.0526 15.5514 15.5068 15.5514V15.7514ZM17.1977 14.6532C17.6971 13.9252 17.9447 13.0551 17.9447 12.0479H17.7447C17.7447 13.0211 17.506 13.8502 17.0328 14.5401L17.1977 14.6532ZM17.9447 12.0479C17.9447 10.4705 17.4197 9.20839 16.3642 8.27282L16.2315 8.42249C17.2385 9.31505 17.7447 10.5197 17.7447 12.0479H17.9447ZM16.3644 8.27301C15.3173 7.33962 13.962 6.87656 12.3076 6.87656V7.07656C13.9228 7.07656 15.2276 7.52757 16.2313 8.4223L16.3644 8.27301ZM12.3076 6.87656C11.1138 6.87656 10.0386 7.15294 9.08451 7.70749L9.18502 7.8804C10.106 7.34511 11.146 7.07656 12.3076 7.07656V6.87656ZM9.08428 7.70763C8.13666 8.26189 7.39726 9.02827 6.86719 10.005L7.04297 10.1004C7.55587 9.15532 8.26959 8.41584 9.18525 7.88026L9.08428 7.70763ZM6.86696 10.0055C6.34277 10.9824 6.08164 12.0799 6.08164 13.2959H6.28164C6.28164 12.1095 6.53614 11.045 7.04319 10.1L6.86696 10.0055ZM6.08164 13.2959C6.08164 15.1086 6.59761 16.5427 7.64023 17.5854L7.78165 17.4439C6.78521 16.4475 6.28164 15.0692 6.28164 13.2959H6.08164ZM7.64043 17.5856C8.68795 18.6271 10.0833 19.1439 11.8154 19.1439V18.9439C10.1257 18.9439 8.78471 18.4413 7.78145 17.4437L7.64043 17.5856ZM11.8154 19.1439C13.2901 19.1439 14.6142 18.8091 15.7851 18.1375L15.6856 17.964C14.5479 18.6166 13.2587 18.9439 11.8154 18.9439V19.1439ZM15.64 18.0809L15.9476 19.0564L16.1383 18.9963L15.8307 18.0207L15.64 18.0809ZM15.9871 18.9434C14.8943 19.6796 13.5031 20.0514 11.8066 20.0514V20.2514C13.532 20.2514 14.965 19.8731 16.0988 19.1093L15.9871 18.9434ZM11.8066 20.0514C9.77717 20.0514 8.15761 19.4462 6.93739 18.2432L6.79698 18.3857C8.06114 19.6319 9.73455 20.2514 11.8066 20.2514V20.0514ZM6.93739 18.2432C5.71804 17.0411 5.10391 15.4078 5.10391 13.3311H4.90391C4.90391 15.4497 5.53196 17.1385 6.79698 18.3857L6.93739 18.2432ZM5.10391 13.3311C5.10391 12.3 5.28342 11.331 5.64184 10.4234L5.45582 10.35C5.08767 11.2822 4.90391 12.2762 4.90391 13.3311H5.10391ZM5.64163 10.424C6.00632 9.51514 6.50337 8.73836 7.13221 8.09221L6.98888 7.95272C6.34038 8.61906 5.82962 9.41845 5.45602 10.3495L5.64163 10.424ZM7.1322 8.09221C7.76654 7.44058 8.53713 6.92647 9.44548 6.5504L9.36897 6.36561C8.43748 6.75126 7.64362 7.28012 6.98889 7.95271L7.1322 8.09221ZM9.44548 6.5504C10.3524 6.17491 11.3325 5.98672 12.3867 5.98672V5.78672C11.3081 5.78672 10.3019 5.97938 9.36897 6.36561L9.44548 6.5504ZM12.3867 5.98672C13.6269 5.98672 14.7361 6.23582 15.7166 6.73181L15.8069 6.55335C14.7951 6.04153 13.6544 5.78672 12.3867 5.78672V5.98672ZM15.7166 6.73181C16.6962 7.22736 17.4703 7.94111 18.0406 8.87441L18.2113 8.77012C17.6215 7.80499 16.8195 7.06561 15.8069 6.55335L15.7166 6.73181ZM18.0406 8.87441C18.61 9.80615 18.8961 10.8834 18.8961 12.1094H19.0961C19.0961 10.851 18.8021 9.73682 18.2113 8.77012L18.0406 8.87441ZM9.90488 13.6475C9.90488 14.2397 10.0244 14.7194 10.2746 15.076L10.4383 14.9611C10.2198 14.6497 10.1049 14.2153 10.1049 13.6475H9.90488ZM10.2753 15.0769C10.5371 15.441 10.9242 15.6195 11.4199 15.6195V15.4195C10.9782 15.4195 10.6562 15.2641 10.4376 14.9602L10.2753 15.0769ZM11.4199 15.6195C12.0741 15.6195 12.5782 15.3481 12.9195 14.8083L12.7504 14.7014C12.4472 15.1812 12.008 15.4195 11.4199 15.4195V15.6195ZM12.9198 14.8079C13.2528 14.2751 13.4752 13.5354 13.5934 12.5965L13.3949 12.5715C13.2787 13.4958 13.0617 14.2034 12.7502 14.7019L12.9198 14.8079ZM13.5933 12.5966C13.6462 12.1796 13.7225 11.5108 13.8221 10.5908L13.6232 10.5693C13.5236 11.4892 13.4475 12.1564 13.3949 12.5714L13.5933 12.5966ZM13.7558 10.4857C13.4074 10.3635 12.9674 10.3043 12.4395 10.3043V10.5043C12.9545 10.5043 13.37 10.5623 13.6895 10.6744L13.7558 10.4857ZM12.4395 10.3043C11.8807 10.3043 11.4009 10.4596 11.006 10.7743L11.1307 10.9307C11.4858 10.6478 11.9201 10.5043 12.4395 10.5043V10.3043ZM11.0054 10.7748C10.6209 11.0861 10.3411 11.4916 10.1655 11.9881L10.354 12.0548C10.5183 11.5904 10.7775 11.2166 11.1313 10.9303L11.0054 10.7748ZM10.1656 11.9878C9.99111 12.4752 9.90488 13.0289 9.90488 13.6475H10.1049C10.1049 13.0472 10.1886 12.517 10.3539 12.0552L10.1656 11.9878Z" fill="current-color"/>
</svg>
