<svg width="24" height="24" viewBox="0 0 24 24" xmlns="http://www.w3.org/2000/svg">
<path fill-rule="evenodd" clip-rule="evenodd" d="M5.2 8.1V8.5H6.96V8.1H6.365V5H6.035L5 5.745L5.245 6.08L5.915 5.575V8.1H5.2ZM10.1778 5.63721C9.62547 5.63721 9.17775 6.08492 9.17775 6.63721C9.17775 7.18949 9.62547 7.63721 10.1778 7.63721H18.1778C18.73 7.63721 19.1778 7.18949 19.1778 6.63721C19.1778 6.08492 18.73 5.63721 18.1778 5.63721H10.1778ZM5.10498 13.875C5.10498 13.9383 5.10998 14 5.11998 14.06H7.14998V13.65H5.60998C5.62998 13.5033 5.67998 13.3667 5.75998 13.24C5.84331 13.1133 5.94331 12.9917 6.05998 12.875C6.17665 12.7583 6.29831 12.645 6.42498 12.535C6.55165 12.4217 6.66998 12.305 6.77998 12.185C6.88998 12.065 6.97998 11.9367 7.04998 11.8C7.11998 11.6633 7.15498 11.515 7.15498 11.355C7.15498 11.195 7.11331 11.05 7.02998 10.92C6.94998 10.79 6.83665 10.6883 6.68998 10.615C6.54331 10.5383 6.37165 10.5 6.17498 10.5C5.96165 10.5 5.77331 10.5367 5.60998 10.61C5.44998 10.6833 5.30331 10.78 5.16998 10.9L5.41998 11.205C5.51998 11.1117 5.62665 11.0383 5.73998 10.985C5.85665 10.9283 5.98498 10.9 6.12498 10.9C6.28831 10.9 6.42165 10.9467 6.52498 11.04C6.62831 11.13 6.67998 11.245 6.67998 11.385C6.67998 11.5083 6.64165 11.6267 6.56498 11.74C6.48831 11.8533 6.38998 11.9667 6.26998 12.08C6.15331 12.19 6.02665 12.3067 5.88998 12.43C5.75665 12.55 5.62998 12.6817 5.50998 12.825C5.38998 12.965 5.29165 13.1217 5.21498 13.295C5.14165 13.465 5.10498 13.6583 5.10498 13.875ZM10.3777 11.1972C9.82545 11.1972 9.37773 11.6449 9.37773 12.1972C9.37773 12.7495 9.82545 13.1972 10.3777 13.1972H18.3777C18.93 13.1972 19.3777 12.7495 19.3777 12.1972C19.3777 11.6449 18.93 11.1972 18.3777 11.1972H10.3777ZM5.975 19.68C5.75833 19.68 5.57 19.6517 5.41 19.595C5.25 19.535 5.11333 19.4633 5 19.38L5.205 19.005C5.29833 19.075 5.40667 19.1367 5.53 19.19C5.65333 19.2433 5.80333 19.27 5.98 19.27C6.2 19.27 6.37333 19.2117 6.5 19.095C6.63 18.9783 6.695 18.8333 6.695 18.66C6.695 18.5367 6.66167 18.425 6.595 18.325C6.52833 18.2217 6.425 18.1383 6.285 18.075C6.14833 18.0117 5.97 17.98 5.75 17.98H5.47V17.615H5.73C5.92667 17.615 6.08833 17.585 6.215 17.525C6.345 17.465 6.44167 17.3867 6.505 17.29C6.56833 17.1933 6.6 17.0917 6.6 16.985C6.6 16.8283 6.54 16.7017 6.42 16.605C6.30333 16.5083 6.15833 16.46 5.985 16.46C5.82833 16.46 5.68833 16.4867 5.565 16.54C5.445 16.59 5.34667 16.6467 5.27 16.71L5.085 16.355C5.185 16.2883 5.31333 16.2233 5.47 16.16C5.62667 16.0933 5.81 16.06 6.02 16.06C6.24 16.06 6.42667 16.1 6.58 16.18C6.73333 16.26 6.85 16.3667 6.93 16.5C7.01333 16.63 7.055 16.7717 7.055 16.925C7.055 17.1217 7.005 17.2867 6.905 17.42C6.80833 17.5533 6.67 17.6633 6.49 17.75C6.7 17.83 6.86333 17.9483 6.98 18.105C7.1 18.2583 7.16 18.4383 7.16 18.645C7.16 18.8183 7.11667 18.985 7.03 19.145C6.94667 19.3017 6.81667 19.43 6.64 19.53C6.46667 19.63 6.245 19.68 5.975 19.68ZM9.37775 17.7572C9.37775 17.2049 9.82547 16.7572 10.3778 16.7572H18.3778C18.93 16.7572 19.3778 17.2049 19.3778 17.7572C19.3778 18.3095 18.93 18.7572 18.3778 18.7572H10.3778C9.82547 18.7572 9.37775 18.3095 9.37775 17.7572Z" fill="current-color"/>
</svg>
