<svg width="24" height="24" viewBox="0 0 24 24" xmlns="http://www.w3.org/2000/svg">
<path fill-rule="evenodd" clip-rule="evenodd" d="M18.6926 17.2086L15.2345 13.7504C15.8649 12.8209 16.2015 11.7234 16.2005 10.6003C16.2005 7.50612 13.6944 5 10.6003 5C7.50612 5 5 7.50612 5 10.6003C5 13.6944 7.50612 16.2005 10.6003 16.2005C11.7693 16.2005 12.8474 15.8435 13.7504 15.2345L17.2086 18.6926C17.4054 18.8894 17.6723 19 17.9506 19C18.2289 19 18.4958 18.8894 18.6926 18.6926C18.8894 18.4958 19 18.2289 19 17.9506C19 17.6723 18.8894 17.4054 18.6926 17.2086V17.2086ZM10.6003 14.8005C8.28315 14.8005 6.40007 12.9174 6.40007 10.6003C6.40007 8.28315 8.28315 6.40007 10.6003 6.40007C12.9174 6.40007 14.8005 8.28315 14.8005 10.6003C14.8005 12.9174 12.9174 14.8005 10.6003 14.8005Z" fill="current-color"/>
</svg>
