<svg width="24" height="24" viewBox="0 0 24 24" xmlns="http://www.w3.org/2000/svg">
<path fill-rule="evenodd" clip-rule="evenodd" d="M11.5 5C11.2239 5 11 5.22386 11 5.5V7.10001C11.3231 7.03443 11.6575 7 12 7C12.3425 7 12.6769 7.03443 13 7.10002V5.5C13 5.22386 12.7762 5 12.5 5H11.5ZM14.6866 7.78237C15.2541 8.14464 15.7437 8.61833 16.1244 9.17261L17.2369 8.02188C17.4288 7.82335 17.4235 7.50681 17.2249 7.31488L16.506 6.61982C16.3074 6.42788 15.9909 6.43323 15.799 6.63176L14.6866 7.78237ZM16.8975 10.988C16.9647 11.3148 17 11.6533 17 12C17 12.3382 16.9664 12.6686 16.9024 12.988L18.5024 12.9841C18.7786 12.9834 19.0019 12.759 19.0012 12.4828L18.9987 11.4828C18.9981 11.2067 18.7737 10.9834 18.4975 10.9841L16.8975 10.988ZM16.1749 14.7523C15.8041 15.3138 15.3229 15.796 14.7624 16.1682L15.8955 17.2986C16.091 17.4936 16.4076 17.4932 16.6026 17.2977L17.3089 16.5898C17.5039 16.3943 17.5035 16.0777 17.308 15.8827L16.1749 14.7523ZM13 16.9C12.6769 16.9656 12.3425 17 12 17C11.6575 17 11.3231 16.9656 11 16.9V18.5C11 18.7761 11.2239 19 11.5 19H12.5C12.7762 19 13 18.7761 13 18.5V16.9ZM9.31343 16.2177C8.74588 15.8554 8.25634 15.3817 7.87563 14.8274L6.76317 15.9781C6.57124 16.1767 6.57658 16.4932 6.77512 16.6851L7.49407 17.3802C7.6926 17.5721 8.00914 17.5668 8.20107 17.3682L9.31343 16.2177ZM7.10247 13.012C7.03529 12.6852 7 12.3467 7 12C7 11.6618 7.03358 11.3314 7.09759 11.012L5.49755 11.0159C5.22141 11.0166 4.9981 11.241 4.99878 11.5172L5.00123 12.5172C5.00191 12.7933 5.22632 13.0166 5.50246 13.0159L7.10247 13.012ZM7.82506 9.24765C8.19595 8.68619 8.67706 8.20395 9.23757 7.83174L8.1045 6.70142C7.90901 6.50639 7.59242 6.50677 7.3974 6.70227L6.69115 7.41023C6.49612 7.60573 6.49651 7.92232 6.692 8.11734L7.82506 9.24765ZM15.5 12C15.5 13.933 13.933 15.5 12 15.5C10.067 15.5 8.5 13.933 8.5 12C8.5 10.067 10.067 8.5 12 8.5C13.933 8.5 15.5 10.067 15.5 12Z" fill="current-color"/>
</svg>
