<svg width="24" height="24" viewBox="0 0 24 24" xmlns="http://www.w3.org/2000/svg">
<path fill-rule="evenodd" clip-rule="evenodd" d="M11.3575 4C11.0814 4 10.8575 4.22386 10.8575 4.5V6.39999C11.2267 6.32506 11.6088 6.28572 12 6.28572C12.3914 6.28572 12.7736 6.32508 13.1429 6.40006V4.5C13.1429 4.22386 12.919 4 12.6429 4H11.3575ZM15.07 7.1799C15.7185 7.59394 16.2779 8.1353 16.7129 8.76877L18.0338 7.40225C18.2257 7.2037 18.2203 6.88714 18.0218 6.69519L17.0977 5.8016C16.8991 5.60965 16.5826 5.61499 16.3907 5.81354L15.07 7.1799ZM17.5963 10.8434C17.673 11.2169 17.7133 11.6038 17.7133 12C17.7133 12.3865 17.675 12.7641 17.6018 13.1291L19.5016 13.1245C19.7777 13.1238 20.001 12.8994 20.0003 12.6232L19.9972 11.3375C19.9965 11.0614 19.7721 10.8381 19.496 10.8388L17.5963 10.8434ZM16.7706 15.1455C16.3469 15.7871 15.7971 16.3383 15.1567 16.7637L16.502 18.1059C16.6974 18.301 17.014 18.3006 17.209 18.1051L18.1168 17.1949C18.3118 16.9994 18.3114 16.6828 18.116 16.4877L16.7706 15.1455ZM13.1429 17.6C12.7736 17.6749 12.3914 17.7143 12 17.7143C11.6088 17.7143 11.2267 17.675 10.8575 17.6V19.5C10.8575 19.7761 11.0814 20 11.3575 20H12.6429C12.919 20 13.1429 19.7761 13.1429 19.5V17.6ZM8.93028 16.8202C8.28176 16.4062 7.72238 15.8649 7.28735 15.2314L5.96665 16.5977C5.77474 16.7963 5.78008 17.1129 5.9786 17.3048L6.90274 18.1984C7.10126 18.3903 7.41777 18.385 7.60969 18.1865L8.93028 16.8202ZM6.40384 13.1566C6.32707 12.7831 6.28674 12.3962 6.28674 12C6.28674 11.6135 6.32512 11.2359 6.39826 10.8709L4.49878 10.8755C4.22263 10.8762 3.99933 11.1006 4 11.3768L4.00316 12.6625C4.00383 12.9386 4.22824 13.1619 4.50438 13.1613L6.40384 13.1566ZM7.22955 8.85439C7.65337 8.21274 8.20312 7.6616 8.8436 7.23623L7.49841 5.89406C7.30292 5.69902 6.98637 5.6994 6.79136 5.89492L5.88354 6.8051C5.68853 7.00061 5.68892 7.31722 5.8844 7.51226L7.22955 8.85439ZM16.2133 12C16.2133 14.3277 14.3267 16.2143 12 16.2143C9.67335 16.2143 7.78674 14.3277 7.78674 12C7.78674 9.67227 9.67335 7.78572 12 7.78572C14.3267 7.78572 16.2133 9.67227 16.2133 12Z" fill="current-color"/>
</svg>
