<svg width="24" height="24" viewBox="0 0 24 24" xmlns="http://www.w3.org/2000/svg">
<mask id="path-2-inside-1_8_48" fill="white">
<path fill-rule="evenodd" clip-rule="evenodd" d="M8.55469 15.0469C9.33073 15.7917 10.4688 16.1641 11.9688 16.1641C13.474 16.1641 14.6224 15.7917 15.4141 15.0469C16.2057 14.2969 16.6016 13.2474 16.6016 11.8984V4.85469C16.6016 4.689 16.4672 4.55469 16.3016 4.55469H14.7844C14.6187 4.55469 14.4844 4.689 14.4844 4.85469V11.6953C14.4844 12.6484 14.2891 13.3464 13.8984 13.7891C13.5078 14.2266 12.8776 14.4453 12.0078 14.4453C11.1224 14.4453 10.4844 14.2266 10.0938 13.7891C9.70833 13.3516 9.51562 12.6562 9.51562 11.7031V4.85469C9.51562 4.689 9.38131 4.55469 9.21562 4.55469H7.69062C7.52494 4.55469 7.39062 4.689 7.39062 4.85469V11.8828C7.39062 13.2422 7.77865 14.2969 8.55469 15.0469ZM5.5 17.5468C5.22386 17.5468 5 17.7706 5 18.0468V19.0625C5 19.3386 5.22386 19.5625 5.5 19.5625H18.5C18.7761 19.5625 19 19.3386 19 19.0625V18.0468C19 17.7706 18.7761 17.5468 18.5 17.5468H5.5Z"/>
</mask>
<path fill-rule="evenodd" clip-rule="evenodd" d="M8.55469 15.0469C9.33073 15.7917 10.4688 16.1641 11.9688 16.1641C13.474 16.1641 14.6224 15.7917 15.4141 15.0469C16.2057 14.2969 16.6016 13.2474 16.6016 11.8984V4.85469C16.6016 4.689 16.4672 4.55469 16.3016 4.55469H14.7844C14.6187 4.55469 14.4844 4.689 14.4844 4.85469V11.6953C14.4844 12.6484 14.2891 13.3464 13.8984 13.7891C13.5078 14.2266 12.8776 14.4453 12.0078 14.4453C11.1224 14.4453 10.4844 14.2266 10.0938 13.7891C9.70833 13.3516 9.51562 12.6562 9.51562 11.7031V4.85469C9.51562 4.689 9.38131 4.55469 9.21562 4.55469H7.69062C7.52494 4.55469 7.39062 4.689 7.39062 4.85469V11.8828C7.39062 13.2422 7.77865 14.2969 8.55469 15.0469ZM5.5 17.5468C5.22386 17.5468 5 17.7706 5 18.0468V19.0625C5 19.3386 5.22386 19.5625 5.5 19.5625H18.5C18.7761 19.5625 19 19.3386 19 19.0625V18.0468C19 17.7706 18.7761 17.5468 18.5 17.5468H5.5Z" fill="current-color"/>
<path d="M8.55469 15.0469L7.85974 15.7659L7.86226 15.7684L8.55469 15.0469ZM15.4141 15.0469L16.0993 15.7752L16.1018 15.7728L15.4141 15.0469ZM13.8984 13.7891L14.6444 14.4551L14.6483 14.4507L13.8984 13.7891ZM10.0938 13.7891L9.34337 14.4501L9.34781 14.4551L10.0938 13.7891ZM11.9688 15.1641C10.624 15.1641 9.77402 14.8311 9.24712 14.3254L7.86226 15.7684C8.88744 16.7523 10.3135 17.1641 11.9688 17.1641V15.1641ZM14.7288 14.3185C14.184 14.8311 13.3182 15.1641 11.9688 15.1641V17.1641C13.6297 17.1641 15.0608 16.7522 16.0993 15.7752L14.7288 14.3185ZM15.6016 11.8984C15.6016 13.0424 15.2732 13.8028 14.7263 14.3209L16.1018 15.7728C17.1382 14.7909 17.6016 13.4524 17.6016 11.8984H15.6016ZM15.6016 4.85469V11.8984H17.6016V4.85469H15.6016ZM14.7844 5.55469H16.3016V3.55469H14.7844V5.55469ZM15.4844 11.6953V4.85469H13.4844V11.6953H15.4844ZM14.6483 14.4507C15.2738 13.7418 15.4844 12.7511 15.4844 11.6953H13.4844C13.4844 12.5457 13.3043 12.9509 13.1486 13.1274L14.6483 14.4507ZM12.0078 15.4453C13.0234 15.4453 13.9878 15.1904 14.6444 14.4551L13.1525 13.123C13.0278 13.2627 12.7318 13.4453 12.0078 13.4453V15.4453ZM9.34781 14.4551C10.0073 15.1937 10.9832 15.4453 12.0078 15.4453V13.4453C11.2616 13.4453 10.9614 13.2594 10.8397 13.123L9.34781 14.4551ZM8.51562 11.7031C8.51562 12.755 8.72199 13.7447 9.34339 14.4501L10.8441 13.128C10.6947 12.9584 10.5156 12.5575 10.5156 11.7031H8.51562ZM8.51562 4.85469V11.7031H10.5156V4.85469H8.51562ZM7.69062 5.55469H9.21562V3.55469H7.69062V5.55469ZM8.39062 11.8828V4.85469H6.39062V11.8828H8.39062ZM9.24963 14.3278C8.71634 13.8124 8.39062 13.0456 8.39062 11.8828H6.39062C6.39062 13.4388 6.84096 14.7813 7.85975 15.7659L9.24963 14.3278ZM6 18.0468C6 18.3229 5.77614 18.5468 5.5 18.5468V16.5468C4.67157 16.5468 4 17.2183 4 18.0468H6ZM6 19.0625V18.0468H4V19.0625H6ZM5.5 18.5625C5.77614 18.5625 6 18.7864 6 19.0625H4C4 19.8909 4.67157 20.5625 5.5 20.5625V18.5625ZM18.5 18.5625H5.5V20.5625H18.5V18.5625ZM18 19.0625C18 18.7864 18.2239 18.5625 18.5 18.5625V20.5625C19.3284 20.5625 20 19.8909 20 19.0625H18ZM18 18.0468V19.0625H20V18.0468H18ZM18.5 18.5468C18.2239 18.5468 18 18.3229 18 18.0468H20C20 17.2183 19.3284 16.5468 18.5 16.5468V18.5468ZM5.5 18.5468H18.5V16.5468H5.5V18.5468ZM7.69062 3.55469C6.97265 3.55469 6.39062 4.13672 6.39062 4.85469H8.39062C8.39062 5.24129 8.07723 5.55469 7.69062 5.55469V3.55469ZM10.5156 4.85469C10.5156 4.13672 9.9336 3.55469 9.21562 3.55469V5.55469C8.82903 5.55469 8.51562 5.24129 8.51562 4.85469H10.5156ZM14.7844 3.55469C14.0664 3.55469 13.4844 4.13672 13.4844 4.85469H15.4844C15.4844 5.24129 15.171 5.55469 14.7844 5.55469V3.55469ZM17.6016 4.85469C17.6016 4.13672 17.0195 3.55469 16.3016 3.55469V5.55469C15.915 5.55469 15.6016 5.24129 15.6016 4.85469H17.6016Z" fill="current-color" mask="url(#path-2-inside-1_8_48)"/>
</svg>
