<svg width="112" height="78" viewBox="0 0 112 78" fill="none" xmlns="http://www.w3.org/2000/svg">
<path d="M42.9545 34.0867L72.4472 69.2499C75.5462 73.0154 81.1873 73.6029 84.9937 70.5152C86.3162 69.4881 87.2837 68.083 87.814 66.5585L103.546 23.0764C104.594 18.3264 101.518 13.6052 96.6968 12.5871C95.7369 12.408 94.7362 12.3599 93.7638 12.4718L48.3297 20.5137C46.0239 21.0487 44.0622 22.4427 42.7837 24.4421C41.5064 26.4478 41.0964 28.8328 41.6288 31.1176C41.8656 32.0939 42.2511 33.0058 42.9545 34.0867V34.0867Z" fill="url(#paint0_linear_20_3)"/>
<g filter="url(#filter0_f_20_3)">
<path d="M55.7671 32.3778L72.676 52.5377C74.4527 54.6966 77.6869 55.0334 79.8692 53.2632C80.6274 52.6743 81.1821 51.8687 81.4862 50.9947L90.506 26.0653C91.1066 23.342 89.343 20.6352 86.5789 20.0515C86.0286 19.9488 85.4548 19.9213 84.8973 19.9854L58.8488 24.596C57.5268 24.9028 56.4021 25.702 55.6691 26.8483C54.9368 27.9982 54.7017 29.3656 55.007 30.6755C55.1428 31.2352 55.3638 31.7581 55.7671 32.3778V32.3778Z" fill="#0062FF"/>
</g>
<g filter="url(#filter1_b_20_3)">
<path d="M2.03701 19.0997L31.7178 70.6115C34.8207 76.1142 41.8836 78.1373 47.436 75.0582C49.3549 74.0467 50.9063 72.4727 51.9269 70.6479L81.8119 18.7355C84.2207 12.9131 81.3628 6.19647 75.443 3.80923C74.259 3.36415 72.9934 3.07687 71.7278 3H11.9578C8.89586 3.16184 6.07883 4.49708 3.99668 6.75888C1.91453 9.02878 0.853045 11.9784 1.01635 15.0131C1.098 16.3119 1.38379 17.5622 2.03701 19.0997V19.0997Z" fill="#38BDF8" fill-opacity="0.35"/>
<path d="M1.57682 19.2952L2.03701 19.0997L1.60378 19.3493L31.2823 70.857C31.2827 70.8578 31.2831 70.8585 31.2835 70.8592C34.5205 76.5972 41.8817 78.7069 47.6739 75.498C49.6797 74.4394 51.2974 72.7965 52.3618 70.8947C52.3623 70.8938 52.3628 70.8929 52.3633 70.892L82.2452 18.985C82.256 18.9662 82.2656 18.9467 82.2739 18.9267C84.7909 12.8428 81.8028 5.83477 75.63 3.34551L75.63 3.34538L75.6189 3.34121C74.3925 2.88016 73.0778 2.58109 71.7581 2.50092C71.7554 2.50076 71.7528 2.50062 71.7501 2.5005C71.7427 2.50016 71.7352 2.5 71.7278 2.5H11.9578C11.949 2.5 11.9402 2.50023 11.9314 2.50069C8.73777 2.6695 5.79858 4.06326 3.62881 6.42024L3.62821 6.4209C1.45614 8.78883 0.346466 11.8696 0.517052 15.0399L0.517334 15.0444C0.602867 16.4049 0.903572 17.7105 1.57682 19.2952Z" stroke="url(#paint1_linear_20_3)" stroke-linecap="round" stroke-linejoin="round"/>
</g>
<defs>
<filter id="filter0_f_20_3" x="35.8766" y="0.951019" width="73.7467" height="72.4497" filterUnits="userSpaceOnUse" color-interpolation-filters="sRGB">
<feFlood flood-opacity="0" result="BackgroundImageFix"/>
<feBlend mode="normal" in="SourceGraphic" in2="BackgroundImageFix" result="shape"/>
<feGaussianBlur stdDeviation="9.5" result="effect1_foregroundBlur_20_3"/>
</filter>
<filter id="filter1_b_20_3" x="-24.0001" y="-22" width="131.667" height="123.5" filterUnits="userSpaceOnUse" color-interpolation-filters="sRGB">
<feFlood flood-opacity="0" result="BackgroundImageFix"/>
<feGaussianBlur in="BackgroundImageFix" stdDeviation="12"/>
<feComposite in2="SourceAlpha" operator="in" result="effect1_backgroundBlur_20_3"/>
<feBlend mode="normal" in="SourceGraphic" in2="effect1_backgroundBlur_20_3" result="shape"/>
</filter>
<linearGradient id="paint0_linear_20_3" x1="70.7517" y1="41.4971" x2="117.966" y2="4.05203" gradientUnits="userSpaceOnUse">
<stop stop-color="#38BDF8"/>
<stop offset="1" stop-color="#0369A1"/>
</linearGradient>
<linearGradient id="paint1_linear_20_3" x1="69.6666" y1="67.9372" x2="24.0495" y2="5.1617" gradientUnits="userSpaceOnUse">
<stop stop-color="white" stop-opacity="0.25"/>
<stop offset="1" stop-color="white" stop-opacity="0"/>
</linearGradient>
</defs>
</svg>
